#N canvas 216 71 832 702 10;
#X obj 0 1 cnv 15 830 700 empty empty empty 20 12 0 14 -1 -66577 0
;
#X obj 14 17 cnv 15 800 400 empty empty empty 20 12 0 14 -253822 -66577
0;
#X obj 13 543 cnv 15 800 100 empty empty empty 20 12 0 14 -253822 -66577
0;
#X obj 18 432 cnv 15 100 60 empty empty empty 20 12 0 14 -191407 -66577
0;
#X obj 602 433 cnv 15 100 60 empty empty empty 20 12 0 14 -191407 -66577
0;
#X obj 123 433 cnv 15 100 60 empty empty empty 20 12 0 14 -191407 -66577
0;
#N canvas 0 22 450 300 (subpatch) 0;
#X array mainview 194411 float 2;
#X coords 0 1 194411 -1 800 100 1;
#X restore 13 543 graph;
#N canvas 0 22 450 300 (subpatch) 0;
#X array zoomview 1 float 2;
#X coords 0 1 1 -1 800 400 1;
#X restore 14 17 graph;
#N canvas 216 71 833 703 guts 1;
#X obj 0 -95 cnv 15 830 700 empty empty empty 20 12 0 14 -1 -66577
0;
#X obj 215 -50 cnv 15 450 250 empty empty empty 20 12 0 14 -245500
-66577 0;
#X obj 215 411 cnv 15 200 80 empty empty empty 20 12 0 14 -233017 -66577
0;
#X obj 10 -85 cnv 15 200 180 empty empty empty 20 12 0 14 -245500 -66577
0;
#X obj 86 43 soundfiler;
#X floatatom 19 60 10 0 0 0 - - -;
#X obj 86 60 s filelength;
#X obj 98 -81 r filename;
#X obj 86 9 pack s s s s;
#X obj 98 -64 t b b s b;
#X msg 61 -23 read;
#X msg 97 -32 -resize;
#X msg 152 -33 mainview;
#X obj 86 26 list trim;
#X obj 97 -15 symbol;
#X obj 152 -16 symbol;
#X obj 215 -85 cnv 15 450 30 empty empty empty 20 12 0 14 -249661 -66577
0;
#X obj 10 101 cnv 15 200 390 empty empty empty 20 12 0 14 -233017 -66577
0;
#X obj 670 -39 cnv 15 150 400 empty empty empty 20 12 0 14 -233017
-66577 0;
#X obj 360 -80 r viewtracking;
#X floatatom 414 -29 15 0 0 0 - - -;
#X obj 414 -9 +;
#X obj 492 -81 r zoomsize;
#X obj 443 -48 bng 15 250 50 0 empty empty empty 17 7 0 10 -262144
-1 -1;
#X obj 234 -81 r filelength;
#X obj 245 3 *;
#X obj 319 -30 *;
#X floatatom 311 -7 15 0 0 0 - - -;
#X floatatom 244 35 15 0 0 0 - - -;
#X floatatom 264 84 15 0 0 0 - - -;
#X obj 280 18 bng 15 250 50 0 empty empty empty 17 7 0 10 -262144 -1
-1;
#X obj 335 58 +;
#X obj 578 -79 r refreshing;
#X obj 465 410 cnv 15 200 120 empty empty empty 20 12 0 14 -100539
-66577 0;
#X obj 471 494 line;
#X msg 466 471 0;
#X obj 546 448 dac~;
#X msg 471 434 1;
#X obj 555 425 tabplay~ mainview;
#X obj 471 511 s mainplay;
#X msg 498 472 1 4418;
#X obj 471 414 r playmain;
#X msg 509 492 0;
#X obj 574 511 s refreshing;
#X msg 612 474 start;
#X msg 571 474 stop;
#X obj 590 494 symbol;
#X text 228 53 start of zoom;
#X obj 414 8 s lengthtracking;
#X text 439 -9 onScreen;
#X text 307 7 sizeof(zoomview);
#X obj 365 71 cnv 15 140 120 empty empty empty 20 12 0 14 -191407 -66577
0;
#X obj 372 167 arraycopy;
#X obj 372 133 pack s s f f s;
#X msg 392 99 mainview;
#X msg 449 99 zoomview;
#X obj 453 116 symbol;
#X obj 392 116 symbol;
#X msg 368 76 copy;
#X obj 372 150 list trim;
#X text 402 76 copy main - zoom;
#X obj 670 -85 cnv 15 150 40 empty empty empty 20 12 0 14 -233017 -66577
0;
#X msg 682 -34 0.00125156;
#X obj 717 -74 loadbang;
#X obj 736 44 s zoomsizein;
#X obj 513 -27 cnv 15 150 120 empty empty empty 20 12 0 14 -191407
-66577 0;
#X obj 516 20 tgl 15 0 empty empty empty 17 7 0 10 -262144 -1 -1 0
1;
#X msg 543 60 \; zoomview resize \$1;
#X obj 517 58 0 +;
#X obj 516 36 metro 1000;
#X obj 573 19 r RefreshRate;
#X obj 589 -22 sel start;
#X obj 521 -22 sel stop;
#X msg 521 -5 0;
#X msg 589 -5 1;
#X floatatom 580 36 5 0 0 0 - - -;
#X text 217 -52 update zoomview parameters;
#X msg 221 136 \; zoomview resize \$1;
#X obj 215 205 cnv 15 450 200 empty empty empty 20 12 0 14 -245500
-66577 0;
#X obj 424 246 arraycopy;
#X msg 425 223 copy mainview 1000 20000 zoomview;
#X obj 720 307 tabplay~;
#X obj 711 327 dac~;
#X msg 729 289 set mainview;
#X obj 711 289 bng 15 250 50 0 empty empty empty 17 7 0 10 -262144
-1 -1;
#X msg 18 179 \; zoomview bounds 0 194412 -1 1;
#X obj 58 402 / 44000;
#X floatatom 68 426 5 0 0 0 - - -;
#X obj 109 402 / 44;
#X floatatom 103 426 5 0 0 0 - - -;
#X obj 46 374 r filelength;
#X obj 38 447 s filelengthsec;
#X obj 131 365 r hertz;
#X obj 131 384 / 1000;
#X msg 147 303 0;
#X msg 66 305 0;
#X msg 24 213 \; mainview resize 1;
#X obj 62 324 tabwrite mainview;
#X text 215 411 TO DO:;
#X text 217 425 the copy of main->zoom refreshes;
#X text 217 438 when the mouse changes something;
#X text 524 -42 resize and bang copy;
#X text 12 -83 load file;
#X text 12 -68 send length;
#X connect 4 0 5 0;
#X connect 4 0 6 0;
#X connect 7 0 9 0;
#X connect 8 0 13 0;
#X connect 9 0 10 0;
#X connect 9 1 11 0;
#X connect 9 2 8 2;
#X connect 9 3 12 0;
#X connect 10 0 8 0;
#X connect 11 0 14 0;
#X connect 12 0 15 0;
#X connect 13 0 4 0;
#X connect 14 0 8 1;
#X connect 15 0 8 3;
#X connect 19 0 20 0;
#X connect 19 0 25 0;
#X connect 20 0 21 0;
#X connect 21 0 48 0;
#X connect 22 0 21 1;
#X connect 22 0 23 0;
#X connect 22 0 26 0;
#X connect 23 0 20 0;
#X connect 24 0 25 1;
#X connect 24 0 26 1;
#X connect 24 0 77 0;
#X connect 25 0 28 0;
#X connect 26 0 27 0;
#X connect 26 0 30 0;
#X connect 26 0 31 1;
#X connect 26 0 68 1;
#X connect 28 0 31 0;
#X connect 28 0 53 2;
#X connect 30 0 28 0;
#X connect 31 0 29 0;
#X connect 31 0 53 3;
#X connect 32 0 71 0;
#X connect 32 0 72 0;
#X connect 34 0 39 0;
#X connect 35 0 34 0;
#X connect 37 0 38 0;
#X connect 37 0 35 0;
#X connect 37 0 40 0;
#X connect 38 0 36 0;
#X connect 38 0 36 1;
#X connect 38 1 42 0;
#X connect 38 1 44 0;
#X connect 40 0 34 0;
#X connect 41 0 37 0;
#X connect 41 0 45 0;
#X connect 42 0 39 0;
#X connect 44 0 46 0;
#X connect 45 0 46 0;
#X connect 46 0 43 0;
#X connect 53 0 59 0;
#X connect 54 0 57 0;
#X connect 55 0 56 0;
#X connect 56 0 53 4;
#X connect 57 0 53 1;
#X connect 58 0 55 0;
#X connect 58 0 54 0;
#X connect 58 0 53 0;
#X connect 59 0 52 0;
#X connect 62 0 64 0;
#X connect 62 0 67 0;
#X connect 66 0 69 0;
#X connect 68 0 67 0;
#X connect 69 0 68 0;
#X connect 69 0 58 0;
#X connect 70 0 69 1;
#X connect 70 0 75 0;
#X connect 71 0 74 0;
#X connect 72 0 73 0;
#X connect 73 0 66 0;
#X connect 74 0 66 0;
#X connect 80 0 79 0;
#X connect 81 0 82 0;
#X connect 81 0 82 1;
#X connect 83 0 81 0;
#X connect 84 0 81 0;
#X connect 86 0 87 0;
#X connect 86 0 91 0;
#X connect 88 0 89 0;
#X connect 90 0 88 0;
#X connect 90 0 86 0;
#X connect 92 0 86 1;
#X connect 92 0 93 0;
#X connect 93 0 88 1;
#X connect 94 0 97 1;
#X connect 95 0 97 0;
#X restore 766 670 pd guts;
#X obj 16 417 hsl 800 15 0 1 0 0 zoomsize zoomsizein empty -2 -8 0
10 -66577 -262144 -1 0 1;
#X obj 16 644 hsl 795 15 0 1 0 0 empty mainplay empty -2 -8 0 10 -66577
-262144 -1 0 1;
#X obj 369 660 cnv 15 100 30 empty empty empty 20 12 0 14 -4970 -66577
0;
#X obj 369 660 bng 30 250 50 0 playmain empty empty 17 7 0 10 -3202
-1 -1;
#X obj 358 442 cnv 15 120 40 empty empty empty 20 12 0 14 -75575 -66577
0;
#X text 155 679 LOAD CLIP;
#X obj 15 493 hsl 795 25 0 1 0 0 viewtracking empty empty -2 -8 0 10
-46333 -262144 -1 0 1;
#X obj 15 518 hsl 795 25 0 1 0 0 secondarylengthtracking lengthtracking
empty -2 -8 0 10 -12960 -262144 -1 0 1;
#X obj 706 472 cnv 15 105 20 empty empty empty 20 12 0 14 -228856 -66577
0;
#X floatatom 752 474 5 0 0 0 - filelengthsec null;
#X text 710 474 length;
#X text 786 474 sec;
#N canvas 382 416 352 135 ControlPanel 0;
#X obj -1 1 cnv 15 350 133 empty empty empty 20 12 0 14 -1 -66577 0
;
#X obj 8 12 cnv 15 330 60 empty empty empty 20 12 0 14 -260097 -66577
0;
#X obj 178 12 cnv 15 160 35 empty empty empty 20 12 0 14 -222858 -66577
0;
#X obj 11 95 s filename;
#X obj 289 14 bng 30 250 50 0 empty empty empty 17 7 0 10 -3202 -1
-1;
#X msg 11 51 negativeone.wav;
#X obj 11 78 symbol;
#X text 219 21 2: click;
#X obj 2 73 cnv 15 100 40 empty empty empty 20 12 0 14 -1 -66577 0
;
#X text 48 33 /dir/file.wav;
#X text 37 17 1: enter filename;
#X obj 270 105 s hertz;
#X msg 269 84 44000;
#X connect 4 0 5 0;
#X connect 5 0 6 0;
#X connect 6 0 3 0;
#X connect 12 0 11 0;
#X restore 370 453 pd ControlPanel;
#X text 370 667 PLAY;
#X obj 439 660 bng 30 250 50 0 stopmain empty empty 17 7 0 10 -258113
-1 -1;
#X text 441 667 STOP;
#X obj 44 454 hsl 50 15 1000 50 1 0 RefreshRate empty empty -2 -8 0
10 -262144 -1 -1 0 1;
#X text 33 435 refresh rate;
#X text 27 469 1 sec;
#X text 84 471 50ms;
