#N canvas 228 62 832 702 10;
#X obj 0 1 cnv 15 830 700 empty empty empty 20 12 0 14 -1 -66577 0
;
#X obj 14 17 cnv 15 800 400 empty empty empty 20 12 0 14 -253822 -66577
0;
#X obj 13 543 cnv 15 800 100 empty empty empty 20 12 0 14 -253822 -66577
0;
#X obj 18 432 cnv 15 100 60 empty empty empty 20 12 0 14 -191407 -66577
0;
#X obj 602 433 cnv 15 100 60 empty empty empty 20 12 0 14 -191407 -66577
0;
#X obj 123 433 cnv 15 100 60 empty empty empty 20 12 0 14 -191407 -66577
0;
#N canvas 0 22 450 300 (subpatch) 0;
#X array mainview 1 float 2;
#X coords 0 1 1 -1 800 100 1;
#X restore 13 543 graph;
#N canvas 0 22 450 300 (subpatch) 0;
#X array zoomview 1 float 3;
#A 0 0;
#X coords 0 1 1 -1 800 400 1;
#X restore 14 17 graph;
#N canvas 699 179 552 621 guts 0;
#X obj 8 549 cnv 15 100 60 empty empty empty 20 12 0 14 -233017 -66577
0;
#X obj 114 550 cnv 15 100 60 empty empty empty 20 12 0 14 -233017 -66577
0;
#X obj 187 409 cnv 15 200 120 empty empty empty 20 12 0 14 -100539
-66577 0;
#X obj 220 550 cnv 15 100 60 empty empty empty 20 12 0 14 -233017 -66577
0;
#X obj 328 550 cnv 15 100 60 empty empty empty 20 12 0 14 -233017 -66577
0;
#X obj 435 551 cnv 15 100 60 empty empty empty 20 12 0 14 -233017 -66577
0;
#X obj 28 140 soundfiler;
#X floatatom 27 185 15 0 0 0 - - -;
#X obj 415 452 tabplay~;
#X obj 404 477 dac~;
#X msg 426 431 set mainview;
#X obj 408 431 bng 15 250 50 0 empty empty empty 17 7 0 10 -262144
-1 -1;
#X obj 339 47 r viewtracking;
#X floatatom 317 68 5 0 0 0 - - -;
#X obj 19 393 soundfiler;
#X floatatom 20 415 5 0 0 0 - - -;
#X msg 16 347 read negativeone.wav zoomview;
#X msg 38 369 read -resize negativeone.wav zoomview;
#X obj 302 88 +;
#X obj 364 18 r zoomsize;
#X obj 300 114 s lengthtracking;
#X obj 317 49 bng 15 250 50 0 empty empty empty 17 7 0 10 -262144 -1
-1;
#X obj 9 162 s filelength;
#X obj 436 43 r filelength;
#X obj 391 90 *;
#X obj 452 90 *;
#X floatatom 444 118 15 0 0 0 - - -;
#X floatatom 376 153 15 0 0 0 - - -;
#X floatatom 457 196 15 0 0 0 - - -;
#X obj 392 135 bng 15 250 50 0 empty empty empty 17 7 0 10 -262144
-1 -1;
#X obj 434 177 +;
#X obj 322 244 pack s s f f s;
#X obj 409 225 symbol;
#X msg 397 203 zoomview;
#X obj 342 222 symbol;
#X obj 316 201 symbol;
#X msg 297 180 copy;
#X msg 341 179 mainview;
#X obj 314 290 print messager;
#X obj 321 266 list trim;
#X obj 352 338 arraycopy;
#X msg 14 206 \; zoomview resize 194412;
#X msg 6 240 \; zoomview bounds 0 194412 -1 1;
#X msg 296 311 copy mainview 1000 20000 zoomview;
#X obj 205 478 line;
#X msg 196 456 0;
#X obj 255 480 dac~;
#X msg 245 434 1;
#X obj 266 457 tabplay~ mainview;
#X obj 256 501 s mainplay;
#X obj 36 483 / 44000;
#X floatatom 46 507 5 0 0 0 - - -;
#X obj 87 483 / 44;
#X floatatom 81 507 5 0 0 0 - - -;
#X msg 222 456 1 4418;
#X obj 245 409 r playmain;
#X msg 326 479 0;
#X obj 40 5 r filename;
#X obj 28 81 pack s s s s;
#X obj 40 22 t b b s b;
#X msg 7 43 read;
#X msg 46 42 -resize;
#X msg 103 41 mainview;
#X obj 28 98 list trim;
#X obj 46 59 symbol;
#X obj 103 58 symbol;
#X obj 24 455 r filelength;
#X obj 16 528 s filelengthsec;
#X obj 109 446 r hertz;
#X obj 109 465 / 1000;
#X obj 220 329 arraycopy;
#X obj 182 244 pack s s f f s;
#X msg 182 190 mainview;
#X msg 242 189 zoomview;
#X obj 258 222 symbol;
#X obj 202 217 symbol;
#X msg 196 163 copy;
#X obj 220 269 list trim;
#X obj 175 25 tgl 15 0 empty empty empty 17 7 0 10 -262144 -1 -1 0
1;
#X msg 171 105 \; zoomview resize \$1;
#X obj 173 85 0 +;
#X msg 281 430 0;
#X msg 355 477 1;
#X obj 174 64 metro 1000;
#X msg 227 20 1;
#X obj 199 40 r RefreshRate;
#X floatatom 246 61 5 0 0 0 - - -;
#X msg 129 306 0;
#X msg 48 308 0;
#X msg 12 274 \; mainview resize 1;
#X obj 44 327 tabwrite mainview;
#X connect 6 0 7 0;
#X connect 6 0 22 0;
#X connect 6 0 41 0;
#X connect 8 0 9 0;
#X connect 8 0 9 1;
#X connect 10 0 8 0;
#X connect 11 0 8 0;
#X connect 12 0 13 0;
#X connect 12 0 24 0;
#X connect 13 0 18 0;
#X connect 14 0 15 0;
#X connect 16 0 14 0;
#X connect 17 0 14 0;
#X connect 18 0 20 0;
#X connect 19 0 18 1;
#X connect 19 0 21 0;
#X connect 19 0 25 0;
#X connect 21 0 13 0;
#X connect 23 0 24 1;
#X connect 23 0 25 1;
#X connect 24 0 27 0;
#X connect 25 0 26 0;
#X connect 25 0 80 1;
#X connect 26 0 29 0;
#X connect 26 0 30 1;
#X connect 27 0 30 0;
#X connect 27 0 31 2;
#X connect 27 0 71 2;
#X connect 28 0 71 3;
#X connect 29 0 27 0;
#X connect 30 0 28 0;
#X connect 30 0 31 3;
#X connect 31 0 39 0;
#X connect 32 0 31 4;
#X connect 33 0 32 0;
#X connect 34 0 31 1;
#X connect 35 0 31 0;
#X connect 36 0 35 0;
#X connect 37 0 34 0;
#X connect 39 0 38 0;
#X connect 43 0 40 0;
#X connect 44 0 49 0;
#X connect 45 0 44 0;
#X connect 47 0 48 0;
#X connect 47 0 45 0;
#X connect 47 0 54 0;
#X connect 48 0 46 0;
#X connect 48 0 46 1;
#X connect 48 1 56 0;
#X connect 48 1 82 0;
#X connect 50 0 51 0;
#X connect 50 0 67 0;
#X connect 52 0 53 0;
#X connect 54 0 44 0;
#X connect 55 0 47 0;
#X connect 55 0 81 0;
#X connect 56 0 49 0;
#X connect 57 0 59 0;
#X connect 58 0 63 0;
#X connect 59 0 60 0;
#X connect 59 1 61 0;
#X connect 59 2 58 2;
#X connect 59 3 62 0;
#X connect 60 0 58 0;
#X connect 61 0 64 0;
#X connect 62 0 65 0;
#X connect 63 0 6 0;
#X connect 64 0 58 1;
#X connect 65 0 58 3;
#X connect 66 0 52 0;
#X connect 66 0 50 0;
#X connect 68 0 50 1;
#X connect 68 0 69 0;
#X connect 69 0 52 1;
#X connect 71 0 77 0;
#X connect 72 0 75 0;
#X connect 73 0 74 0;
#X connect 74 0 71 4;
#X connect 75 0 71 1;
#X connect 76 0 73 0;
#X connect 76 0 72 0;
#X connect 76 0 71 0;
#X connect 77 0 70 0;
#X connect 78 0 83 0;
#X connect 80 0 79 0;
#X connect 81 0 78 0;
#X connect 82 0 78 0;
#X connect 83 0 80 0;
#X connect 83 0 76 0;
#X connect 85 0 78 0;
#X connect 86 0 83 1;
#X connect 87 0 90 1;
#X connect 88 0 90 0;
#X restore 766 670 pd guts;
#X obj 16 417 hsl 800 15 0 1 0 0 zoomsize empty empty -2 -8 0 10 -66577
-262144 -1 0 1;
#X obj 16 644 hsl 795 15 0 1 0 0 empty mainplay empty -2 -8 0 10 -66577
-262144 -1 0 1;
#X obj 369 660 cnv 15 100 30 empty empty empty 20 12 0 14 -4970 -66577
0;
#X obj 369 660 bng 30 250 50 0 playmain empty empty 17 7 0 10 -3202
-1 -1;
#X obj 358 442 cnv 15 120 40 empty empty empty 20 12 0 14 -75575 -66577
0;
#X text 155 679 LOAD CLIP;
#X obj 15 493 hsl 795 25 0 1 0 0 viewtracking empty empty -2 -8 0 10
-46333 -262144 -1 0 1;
#X obj 15 518 hsl 795 25 0 1 0 0 secondarylengthtracking lengthtracking
empty -2 -8 0 10 -12960 -262144 -1 0 1;
#X obj 706 472 cnv 15 105 20 empty empty empty 20 12 0 14 -228856 -66577
0;
#X floatatom 752 474 5 0 0 0 - filelengthsec null;
#X text 710 474 length;
#X text 786 474 sec;
#N canvas 382 416 352 135 ControlPanel 0;
#X obj -1 1 cnv 15 350 133 empty empty empty 20 12 0 14 -1 -66577 0
;
#X obj 8 12 cnv 15 330 60 empty empty empty 20 12 0 14 -260097 -66577
0;
#X obj 178 12 cnv 15 160 35 empty empty empty 20 12 0 14 -222858 -66577
0;
#X obj 11 95 s filename;
#X obj 289 14 bng 30 250 50 0 empty empty empty 17 7 0 10 -3202 -1
-1;
#X msg 11 51 negativeone.wav;
#X obj 11 78 symbol;
#X text 219 21 2: click;
#X obj 2 73 cnv 15 100 40 empty empty empty 20 12 0 14 -1 -66577 0
;
#X text 48 33 /dir/file.wav;
#X text 37 17 1: enter filename;
#X obj 270 105 s hertz;
#X msg 269 84 44000;
#X connect 4 0 5 0;
#X connect 5 0 6 0;
#X connect 6 0 3 0;
#X connect 12 0 11 0;
#X restore 370 453 pd ControlPanel;
#X text 370 667 PLAY;
#X obj 439 660 bng 30 250 50 0 stopmain empty empty 17 7 0 10 -258113
-1 -1;
#X text 441 667 STOP;
#X obj 44 454 hsl 50 15 1000 50 1 0 RefreshRate empty empty -2 -8 0
10 -262144 -1 -1 0 1;
#X text 33 435 refresh rate;
#X text 27 469 1 sec;
#X text 84 471 50ms;
